<svg width="30" height="30" viewBox="0 0 30 30" fill="none" xmlns="http://www.w3.org/2000/svg">
<path d="M20.9498 5.13373C23.4168 7.58122 23.4168 11.5517 20.9498 13.9992L13.8821 21.0111C13.0908 21.7964 11.8092 21.7964 11.0179 21.0111L3.95021 13.9993C1.48315 11.5518 1.48315 7.58125 3.95021 5.13376C6.27829 2.82417 9.97092 2.69637 12.45 4.75041C14.9291 2.69637 18.6217 2.82414 20.9498 5.13373ZM12.0274 5.98562C10.0308 4.00489 6.79195 4.00489 4.79537 5.98562C2.80145 7.96372 2.80145 11.1692 4.79537 13.1473L11.8631 20.1593C12.1866 20.4803 12.7134 20.4803 13.0369 20.1592L20.1046 13.1473C22.0985 11.1692 22.0985 7.96372 20.1046 5.98559C18.108 4.00486 14.8691 4.00486 12.8725 5.98559C12.6386 6.21765 12.2613 6.21765 12.0274 5.98559V5.98562ZM27.0467 19.1024C28.2645 20.3109 28.2645 22.272 27.0467 23.4801L23.937 26.5652C23.4576 27.041 22.6823 27.041 22.2031 26.5653L19.0933 23.4801C17.8754 22.272 17.8754 20.3109 19.0933 19.1023C20.1762 18.028 21.8568 17.9108 23.07 18.7508C24.2831 17.9108 25.9637 18.028 27.0467 19.1024H27.0467ZM22.6474 19.9542C21.9 19.2125 20.6861 19.2125 19.9385 19.9542C19.1937 20.6933 19.1937 21.8894 19.9384 22.6282L23.0484 25.7136C23.0598 25.7249 23.0801 25.7249 23.0917 25.7134L26.2015 22.6282C26.9462 21.8894 26.9462 20.6933 26.2015 19.9543C25.4538 19.2125 24.24 19.2125 23.4926 19.9542C23.2587 20.1863 22.8813 20.1863 22.6473 19.9542L22.6474 19.9542Z" fill="#FF1088"/>
</svg>
