<svg width="150" height="130" viewBox="0 0 150 130" fill="none" xmlns="http://www.w3.org/2000/svg">
<path d="M67.9049 0.232498C63.4277 0.535378 55.2194 1.86805 51.165 2.89784C30.8931 8.13768 14.0786 20.374 5.79577 35.9421C-0.248493 47.2395 -1.59166 59.8394 1.89063 71.894C5.69627 85.039 14.8746 96.5182 28.1819 104.787C35.843 109.572 41.9867 112.147 51.7371 114.691C56.8113 116.024 58.0053 116.175 58.254 115.418C58.5276 114.54 57.7316 114.146 54.2245 113.328C36.9125 109.36 22.5605 100.94 12.9345 89.0976C5.02469 79.4054 1.34341 68.9561 1.69164 57.2952C1.89063 51.389 2.81095 46.9669 5.04956 41.5454C9.4273 30.8537 17.5361 21.6461 28.8286 14.5587C42.8573 5.77521 59.0748 1.59546 77.2076 2.11036C92.9525 2.56467 106.732 6.50212 119.269 14.1044C125.885 18.1327 130.785 22.3428 135.561 28.1884C139.317 32.7619 141.58 36.457 143.595 41.3031C144.366 43.1809 145.162 44.7862 145.361 44.8771C145.56 44.9679 145.883 44.8468 146.082 44.6045C146.431 44.2107 146.381 43.9079 145.759 42.1512C142.675 33.2768 134.864 23.1 126.059 16.4972C110.364 4.65455 89.0723 -1.28191 67.9049 0.232498Z" fill="black"/>
<path d="M68.5268 4.04886C53.0057 5.32096 40.9172 9.07668 29.4256 16.1641C17.3868 23.5544 8.60649 34.1249 4.97496 45.5738C3.35818 50.7227 3.00995 53.0246 3.00995 58.8096C3.00995 64.4432 3.30843 66.5937 4.82571 71.6215C8.97959 85.4934 20.6453 97.8509 37.012 105.726C41.0913 107.695 44.7477 108.967 50.7173 110.602C56.2641 112.117 58.6271 112.541 58.2043 112.026C58.0799 111.874 56.3387 111.359 54.3489 110.905C32.0373 105.968 14.1533 92.6717 6.89022 75.6195C4.37799 69.7436 3.53229 65.5336 3.50742 58.8096C3.50742 54.4482 3.55717 53.6304 4.179 50.6924C5.04958 46.6641 6.26838 43.0599 7.86028 39.8796C14.0538 27.4312 25.3464 17.4967 40.4197 11.1665C58.4779 3.62482 80.0681 2.4436 99.3699 7.95602C119.368 13.6805 135.362 26.4014 141.854 41.7575C142.525 43.3022 143.247 45.1497 143.471 45.8464C143.695 46.5733 144.018 47.1487 144.167 47.1487C144.54 47.1487 144.267 46.2098 142.749 42.4541C137.153 28.5822 124.517 16.9818 107.454 10.0459C101.584 7.68343 93.3505 5.53297 87.1819 4.77577C80.6899 3.95799 73.0289 3.65511 68.5268 4.04886Z" fill="black"/>
<path d="M39.6735 41.2729C37.6339 42.3329 36.813 44.2714 37.5095 46.331C38.0318 47.8454 38.7283 48.2694 42.2106 49.3598C44.5984 50.117 45.2949 50.4501 45.3446 50.8742C45.4939 51.7525 44.7228 52.5097 43.3548 52.9035C41.9121 53.3275 40.5689 53.1458 39.0268 52.2371C38.0318 51.6919 37.8577 51.6616 37.5344 52.0554C37.211 52.4491 37.2359 52.5703 37.7334 52.964C41.3151 55.8414 47.7574 53.9333 46.6381 50.3593C46.3396 49.3295 45.7426 49.0266 42.7081 48.1785C41.2654 47.7848 39.8227 47.2396 39.4994 46.9973C38.6039 46.2704 38.3552 45.2103 38.8029 43.9382C39.4994 41.9089 42.1857 41.394 44.6233 42.757C45.8421 43.4536 46.0162 43.4839 46.3645 43.0598C46.7127 42.6661 46.6878 42.5752 46.265 42.1815C44.7974 40.8791 41.34 40.3945 39.6735 41.2729Z" fill="black"/>
<path d="M51.2894 41.2122C49.8965 41.818 48.7026 42.9084 47.9315 44.241C47.3594 45.2708 47.2599 45.7251 47.2599 47.603C47.2599 50.1775 47.7822 51.3587 49.598 52.8428C54.5976 56.9317 61.7114 52.3279 60.3185 45.9069C59.8956 44.029 58.055 41.8786 56.3138 41.2728C54.7219 40.6973 52.5579 40.667 51.2894 41.2122ZM55.6423 42.3632C57.06 42.8781 58.7514 44.8165 59.0748 46.2703C59.4977 48.1785 59.1494 49.5112 57.8311 51.1164C56.8611 52.2977 56.4133 52.6005 55.2194 52.9034C53.329 53.388 51.8864 53.0851 50.4686 51.9039C49.1005 50.7833 48.3792 49.2991 48.3792 47.6636C48.3792 43.7564 52.0853 41.0608 55.6423 42.3632Z" fill="black"/>
<path d="M61.8109 47.603V54.4178H65.6663C69.3476 54.4178 69.5217 54.3875 69.5217 53.8121C69.5217 53.2669 69.3227 53.2063 66.3628 53.1457L63.179 53.0549L63.1043 46.9064L63.0546 40.7882H62.4328H61.8109V47.603Z" fill="black"/>
<path d="M66.7856 40.8791C66.7856 40.9699 67.681 42.9387 68.7755 45.3011L70.7653 49.5717V51.9948C70.7653 54.3875 70.7653 54.4178 71.3872 54.4178C71.9841 54.4178 72.009 54.3572 72.009 52.1159V49.814L73.9989 45.5131C75.0933 43.1204 75.9888 41.0911 75.9888 41.0002C75.9888 40.8791 75.7152 40.7882 75.3669 40.7882C74.8446 40.7882 74.5461 41.2728 73.2278 44.1199C72.3821 45.9675 71.611 47.5424 71.5115 47.603C71.4121 47.6939 70.6161 46.2098 69.7455 44.3319C68.3775 41.4242 68.0541 40.9396 67.482 40.8488C67.0841 40.7882 66.7856 40.8185 66.7856 40.8791Z" fill="black"/>
<path d="M79.7199 47.4213C81.2123 51.1164 82.5057 54.1149 82.5555 54.1149C82.6798 54.1149 88.1769 41.1819 88.1769 40.9093C88.1769 40.8185 87.8784 40.7882 87.5053 40.8488C86.8835 40.9396 86.6099 41.4545 84.7941 45.7251C83.6997 48.3905 82.7047 50.5712 82.6052 50.5712C82.5057 50.6015 81.4859 48.4511 80.3915 45.7857C78.5508 41.4242 78.2772 40.9396 77.6554 40.8488C76.9838 40.7579 76.9838 40.8185 79.7199 47.4213Z" fill="black"/>
<path d="M92.1317 41.1819C90.5398 41.9088 89.3708 42.9689 88.6494 44.3925C88.0525 45.5131 87.9281 46.0886 87.9281 47.6333C87.9281 49.2385 88.0525 49.7232 88.7489 50.965C90.888 54.8418 96.4597 55.5385 99.4445 52.2976C100.191 51.4799 100.191 51.4799 99.6933 51.1164C99.2455 50.8438 98.9719 50.965 97.9024 51.8433C95.8379 53.5092 93.5993 53.6 91.485 52.1159C90.2662 51.2678 90.2165 51.0558 90.9627 50.2078C91.6343 49.4203 91.684 49.39 95.0917 48.6934C98.0019 48.0876 98.8227 47.6636 99.5192 46.3612C100.415 44.6953 99.8176 42.7569 98.0516 41.6362C96.7333 40.8185 93.4998 40.5762 92.1317 41.1819ZM96.5095 42.3329C98.3004 42.9386 99.0466 44.3925 98.375 45.9371C98.0765 46.6338 97.0816 47.0275 94.6439 47.4515C92.3805 47.8453 90.7388 48.4813 90.117 49.178C89.4205 49.9352 89.122 49.2385 89.2464 47.2092C89.4703 43.4535 92.9028 41.1516 96.5095 42.3329Z" fill="black"/>
<path d="M101.609 47.603V54.4178H102.23C102.802 54.4178 102.827 54.2967 102.902 52.54C102.977 50.7833 103.026 50.6318 103.797 50.0866L104.618 49.5112L106.708 51.9645C108.449 53.9938 108.946 54.4178 109.618 54.4178C110.439 54.4178 110.414 54.4178 108.2 51.6919C106.434 49.5414 106.036 48.9054 106.334 48.6934C108.101 47.4516 109.145 46.24 109.817 44.6045C110.24 43.605 110.563 42.3632 110.563 41.7877V40.7882H106.086H101.609V47.603ZM109.145 42.1814C109.369 42.4843 108.598 44.8165 108.001 45.5737C107.553 46.1795 103.399 48.966 102.977 48.966C102.902 48.966 102.852 47.391 102.852 45.4828V41.9997H105.912C107.603 41.9997 109.046 42.0906 109.145 42.1814Z" fill="black"/>
<path d="M141.754 54.115C137.377 57.901 134.641 60.9903 133.845 63.0196C133.546 63.7768 133.397 64.8066 133.422 65.8061C133.447 67.26 133.297 67.7143 131.705 71.0763C128.522 77.8608 125.86 81.9194 122.801 84.7362C121.283 86.1294 120.562 86.4929 121.234 85.4934C121.657 84.8876 123 80.2838 123 79.4357C123 78.1637 122.03 74.0748 121.482 73.1661C120.786 71.9546 120.512 72.2878 120.686 74.1959C120.861 76.3161 120.438 78.6483 119.418 81.0713C118.945 82.1617 118.1 84.4636 117.503 86.2203C116.931 87.977 116.334 89.5822 116.209 89.7943C115.936 90.188 110.414 95.0038 110.215 95.0038C110.14 95.0038 110.364 94.5192 110.687 93.9134C111.608 92.2476 111.807 90.9149 111.657 87.7347C111.508 84.8573 111.608 84.1304 112.677 80.9804C112.802 80.617 112.727 80.4655 112.453 80.4655C111.782 80.4655 109.195 83.8578 108.424 85.7659C107.777 87.3712 107.678 88.0073 107.578 91.2178C107.429 94.8221 107.28 95.549 106.31 97.0937L105.837 97.8206V96.7605C105.837 95.2158 105.215 93.6408 104.096 92.2779C102.927 90.8543 102.479 90.7332 102.703 91.8841C102.802 92.3687 102.927 93.55 103.001 94.5495C103.176 96.7302 102.554 98.911 101.335 100.334L100.589 101.213L101.086 99.7893C101.534 98.6081 101.608 97.8206 101.584 94.2163C101.559 89.5822 101.733 88.7342 103.25 85.3419C103.723 84.2818 104.071 83.3429 103.996 83.2823C103.797 83.04 101.509 85.1905 100.489 86.5534C98.9222 88.6736 98.7729 89.3702 98.7729 95.1552C98.748 100.819 98.5491 101.728 96.9571 103.545C96.3353 104.272 94.1962 105.605 93.649 105.605C93.5246 105.605 93.6987 104.787 94.0469 103.787C94.9921 100.971 94.818 97.3663 93.5992 94.2163C93.0023 92.6413 90.7636 90.2789 88.724 89.0371C87.1072 88.0678 84.4955 87.765 82.7793 88.3707L81.6102 88.7645L82.8539 89.0976C83.625 89.3097 84.8189 90.0366 86.0128 91.0361C89.8931 94.3072 91.6591 97.6692 91.8332 102.121C91.9078 104.242 91.8581 104.696 91.3606 105.726C91.0373 106.392 90.3905 107.18 89.8931 107.482C88.6991 108.209 80.7148 111.087 80.1178 110.996C79.8193 110.935 80.3665 110.33 81.8589 109.088C84.4955 106.937 86.759 104.393 87.5798 102.697C88.3012 101.213 88.7738 98.4869 88.4504 97.7903C88.2514 97.3663 88.1271 97.548 87.7042 98.6989C87.0824 100.486 84.1473 104.242 82.0082 106.029C81.0879 106.786 79.2472 107.876 77.8543 108.482C74.9938 109.754 74.0238 110.42 73.1035 111.753C72.3075 112.904 71.5862 113.449 70.8151 113.48C70.3425 113.48 70.5166 113.177 71.8349 111.571C72.7304 110.542 73.6755 109.118 73.9492 108.421C74.571 106.937 75.5908 102.606 75.3918 102.364C75.2177 102.152 75.2923 102.031 74.2974 103.939C73.2278 106.029 71.2877 108.27 68.7755 110.36C67.6313 111.329 66.3379 112.692 65.915 113.389C65.3429 114.328 64.9449 114.691 64.2236 114.842C62.2586 115.267 63.5769 115.267 66.4374 114.842C69.845 114.328 71.9593 114.267 72.8298 114.661C73.1781 114.842 74.77 115.993 76.3619 117.296C80.1675 120.325 81.2371 120.84 83.9483 120.809C85.1174 120.809 86.3362 120.688 86.6844 120.506C87.2565 120.234 87.2565 120.234 86.8088 119.931C86.5352 119.749 85.9133 119.507 85.4407 119.386C84.1722 119.053 82.3315 117.871 81.2371 116.66C79.6949 114.964 77.5807 113.54 76.1629 113.298C75.0685 113.116 74.969 113.055 75.4913 112.843C77.4812 112.147 80.5158 112.843 82.8787 114.509C85.2915 116.236 88.6743 121.052 89.9677 124.626C90.3905 125.776 90.4403 126.382 90.3159 128.078C90.1418 130.289 90.4652 130.713 90.7885 128.714C90.888 128.078 91.1367 127.17 91.3357 126.685C91.6093 126.019 91.684 125.171 91.6093 123.505C91.4104 119.719 89.7936 116.296 86.9083 113.661C86.0874 112.904 85.5651 112.268 85.7889 112.268C86.0128 112.268 88.525 113.298 91.4104 114.54C94.2708 115.781 97.3054 116.993 98.1262 117.266C100.514 118.023 103.698 117.871 108.076 116.841C110.389 116.266 113.622 115.751 116.209 115.539C118.572 115.327 120.512 115.054 120.512 114.933C120.512 114.812 120.487 114.691 120.463 114.691C120.413 114.691 119.269 114.418 117.901 114.055C115.985 113.57 113.946 113.389 109.195 113.207L102.977 112.995L99.8674 111.693C96.5592 110.299 95.7632 110.178 88.6991 110.148C85.7641 110.148 85.9382 109.694 89.0722 109.027C91.9824 108.421 95.5642 108.633 99.6186 109.694C103.3 110.663 106.583 110.754 109.195 110.027C111.21 109.451 118.522 106.241 118.522 105.907C118.522 105.786 117.776 105.938 116.856 106.271C114.642 107.058 109.867 107.089 105.464 106.362C103.698 106.059 101.111 105.817 99.743 105.817L97.2556 105.786L98.9222 105.423C102.28 104.635 115.612 103.121 117.453 103.303C120.861 103.636 123.572 105.362 126.905 109.33C128.049 110.663 129.019 111.693 129.094 111.602C129.293 111.359 124.965 104.726 123.522 103.091C122.826 102.303 121.582 101.243 120.761 100.789L119.294 99.9408L125.437 96.2153C132.352 92.0356 134.267 91.0664 137.153 90.0971C138.272 89.7337 139.093 89.3399 138.993 89.2188C138.869 89.0673 137.551 89.0976 136.058 89.2491C133.919 89.4611 132.178 89.9154 127.974 91.3692C120.338 94.0043 110.14 97.0331 109.891 96.7302C109.717 96.4879 116.284 91.7327 117.403 91.2784C118.1 91.0058 119.493 90.6423 120.537 90.4909C124.044 89.9154 126.532 88.5525 129.716 85.4328C133.67 81.6165 136.556 79.5266 140.56 77.6488C143.396 76.3161 144.689 75.5286 146.182 74.1959C147.376 73.1661 150.211 69.259 149.987 69.0167C149.913 68.9258 149.192 69.4407 148.371 70.1373C146.157 72.0455 143.893 73.1964 137.675 75.6195C131.407 78.0728 129.691 78.9209 127.502 80.7381L125.985 82.0102L127.676 79.4357C128.596 78.0425 130.238 75.0743 131.307 72.8632C134.019 67.26 133.894 67.4417 134.417 67.4417C134.665 67.4417 135.536 67.0177 136.382 66.5028C138.396 65.2912 140.013 63.0802 142.202 58.537C143.172 56.538 144.565 53.8726 145.311 52.6611C146.033 51.4496 146.505 50.4804 146.306 50.4804C146.132 50.4804 144.092 52.1159 141.754 54.115ZM144.54 53.0246C144.092 53.7515 143.122 55.6293 142.376 57.2043C139.69 62.9591 138.197 65.1095 136.009 66.2907C134.417 67.1388 134.417 66.7753 136.009 65.685C137.476 64.6855 139.192 62.5047 139.939 60.6875C140.212 60.0817 140.361 59.5668 140.287 59.5668C140.237 59.5668 139.988 60.0211 139.764 60.536C139.118 62.0807 137.924 63.8071 136.854 64.746C136.307 65.2307 135.81 65.5638 135.735 65.5033C135.685 65.4124 136.009 64.7763 136.481 64.0494C137.401 62.6562 137.775 61.9898 137.6 61.9898C137.551 61.9898 136.979 62.8076 136.332 63.8374C135.685 64.8369 135.088 65.6244 135.014 65.5335C134.84 65.3215 136.481 62.2624 137.526 60.8389C138.023 60.2028 138.869 59.2639 139.416 58.8096C140.461 57.9312 140.809 57.174 139.889 57.7495C138.993 58.3553 137.377 60.2634 136.332 61.9898C135.76 62.9288 135.213 63.6557 135.088 63.6557C134.989 63.6557 134.616 64.2614 134.292 65.0186C133.72 66.3513 133.72 66.3816 133.695 65.4427C133.695 63.9586 134.84 61.5658 136.531 59.6577C138.073 57.8707 143.869 52.7217 144.167 52.8126C144.267 52.8428 144.54 52.6005 144.764 52.2977C145.535 51.2679 145.411 51.6313 144.54 53.0246ZM122.03 75.468C122.179 76.1344 122.328 77.7699 122.353 79.1329C122.378 81.4045 122.328 81.7074 121.333 84.1607C120.363 86.5534 118.125 90.0971 117.826 89.7337C117.776 89.6428 118.1 89.0371 118.597 88.3707C119.443 87.2198 120.264 85.6145 120.264 85.0996C120.264 84.9785 119.965 85.4631 119.617 86.19C118.945 87.6438 117.08 90.3394 117.353 89.4611C117.428 89.1885 117.801 87.765 118.174 86.3111C118.522 84.827 119.294 82.4948 119.841 81.0713C120.786 78.7391 120.885 78.2242 120.96 75.7709C121.06 73.3479 121.109 73.1358 121.408 73.6507C121.607 73.9839 121.88 74.8017 122.03 75.468ZM144.64 73.4387C144.64 73.681 141.58 75.5286 140.411 76.0132C140.138 76.1344 140.187 76.1949 140.536 76.2252C140.884 76.2555 140.71 76.4675 139.914 76.9824C138.521 77.8911 138.77 77.9516 140.287 77.0733C141.058 76.619 141.307 76.3161 141.083 76.1344C140.909 75.9829 141.008 75.9526 141.381 76.0738C141.804 76.2252 141.928 76.1949 141.779 75.9223C141.655 75.68 141.68 75.5892 141.854 75.7406C141.978 75.8315 142.948 75.3772 143.993 74.6805C145.038 74.0142 145.883 73.5599 145.883 73.7113C145.883 74.1353 142.998 76.0435 140.536 77.2853C135.66 79.7083 132.924 81.6771 129.218 85.2813C127.054 87.4015 124.542 88.9765 122.278 89.6731C121.383 89.9154 120.637 90.0971 120.587 90.0366C120.537 89.976 121.383 89.4914 122.477 88.9765C123.821 88.3101 125.014 87.4015 126.208 86.19C127.178 85.1905 127.974 84.2818 127.974 84.191C127.974 84.0092 127.527 84.403 125.985 86.0083C125.363 86.6746 124.318 87.5227 123.671 87.9467C122.055 88.9159 118.498 90.5212 118.323 90.3092C118.149 90.0971 119.045 89.2794 119.468 89.2491C119.617 89.2491 119.766 89.0673 119.766 88.8553C119.791 88.2799 127.974 80.7381 129.964 79.4963C130.959 78.8906 133.72 77.6185 136.133 76.6795C138.571 75.7406 141.431 74.5897 142.525 74.1051C143.62 73.6507 144.54 73.2267 144.59 73.2267C144.615 73.1964 144.64 73.3176 144.64 73.4387ZM111.633 82.6463C111.259 83.4641 111.185 84.3424 111.185 87.8861C111.185 93.1259 111.011 93.5803 107.603 96.9725L107.006 97.5783L107.28 96.9422C107.429 96.5788 107.479 96.185 107.379 96.0639C107.28 95.9124 107.329 95.9124 107.479 96.0033C107.653 96.1245 107.976 95.6399 108.275 94.7615C108.822 93.2168 110.414 85.9174 110.24 85.7054C110.165 85.6448 109.767 87.3409 109.344 89.4611C108.896 91.5813 108.324 93.8831 108.051 94.5495C107.777 95.2158 107.653 95.4884 107.727 95.1552C107.827 94.8221 107.976 92.9745 108.051 91.0664C108.225 86.9775 108.673 85.6145 110.613 83.0097C111.981 81.1925 112.354 81.0713 111.633 82.6463ZM102.454 86.2808C101.385 88.825 101.111 90.5817 101.111 94.8221C101.111 98.1235 101.036 98.9412 100.614 100.001C100.091 101.334 98.8724 102.939 98.8724 102.303C98.8724 102.091 98.7729 102.031 98.6237 102.121C98.4993 102.212 98.5491 101.728 98.748 101.031C99.0217 100.122 99.1211 98.4264 99.1211 95.0341C99.1211 90.7332 99.1709 90.188 99.7181 88.7948C100.24 87.4318 102.753 84.191 103.026 84.5241C103.076 84.5847 102.827 85.3722 102.454 86.2808ZM88.5499 89.5217C89.4951 90.0669 90.7885 91.1572 91.6591 92.1567C92.853 93.55 93.2261 94.2163 93.6738 95.8216C94.3952 98.5172 94.4201 101.607 93.6738 103.606C93.4002 104.423 93.0769 104.999 92.9774 104.908C92.9028 104.787 92.6292 105.12 92.3804 105.605C91.7088 106.907 91.3855 106.725 91.9327 105.393C93.1764 102.424 91.7835 96.6999 89.0225 93.3077C88.3012 92.4596 88.2514 92.2779 88.6991 92.5808L89.2961 92.9139L88.6743 92.3082C88.326 91.975 87.0326 91.0361 85.7641 90.2486C84.3214 89.3399 83.6001 88.7039 83.7742 88.5525C84.3712 88.0678 86.9083 88.5827 88.5499 89.5217ZM136.133 89.7034C136.083 89.7943 134.69 90.2486 133.049 90.7635C131.432 91.2481 130.536 91.5813 131.084 91.4904C132.601 91.2178 132.004 91.6418 129.168 92.7625C126.805 93.7014 126.706 93.7923 128.472 93.3077C129.492 93.0351 127.626 94.2466 125.537 95.1855C124.542 95.6399 123.771 96.0639 123.821 96.1245C123.87 96.185 124.393 96.0033 124.99 95.761C126.855 94.9735 126.333 95.4581 123.821 96.9119C116.582 101.031 114.692 101.607 108.125 101.728C105.364 101.788 103.101 101.728 103.101 101.576C103.101 101.455 103.623 101.364 104.245 101.364C104.867 101.364 105.315 101.243 105.24 101.092C105.141 100.94 105.24 100.728 105.389 100.637C105.563 100.547 105.439 100.547 105.116 100.637C104.071 100.971 104.817 100.153 106.434 99.2138C107.454 98.6384 108.324 98.3355 109.071 98.3658L110.19 98.3961L108.747 99.0018C106.533 99.9408 107.155 99.9105 109.941 98.9412L112.428 98.0629L110.563 98.0326L108.697 97.972L109.568 97.5177C110.041 97.2754 112.528 96.5182 115.09 95.8822C117.627 95.2158 122.676 93.6711 126.283 92.399C129.865 91.1572 133.272 90.0063 133.82 89.8548C134.964 89.5822 136.332 89.4914 136.133 89.7034ZM104.618 93.8529C105.961 96.1245 105.489 98.4264 103.325 100.183C102.006 101.243 101.584 101.304 102.33 100.365C102.628 99.971 102.902 99.3956 102.952 99.0624C103.026 98.7595 103.176 97.8206 103.35 96.9725C103.499 96.1547 103.549 94.9432 103.449 94.2769C103.3 93.0957 103.3 93.0654 103.748 93.4894C104.195 93.9437 104.195 93.9134 103.748 93.0654C103.101 91.8236 103.748 92.4293 104.618 93.8529ZM87.4057 102C87.1321 102.697 86.3113 104.03 85.6148 104.908C84.4458 106.422 80.2919 110.087 78.6005 111.117C77.6304 111.723 73.2776 112.995 73.0786 112.753C72.8298 112.45 74.0238 111.056 75.0685 110.39C75.6157 110.057 77.0583 109.33 78.302 108.755C81.7346 107.149 85.4407 103.908 87.0824 101.001C87.9778 99.4561 88.2017 100.122 87.4057 102ZM120.96 101.395C122.055 102.031 123.025 103.03 124.368 104.757C125.388 106.12 126.233 107.331 126.233 107.482C126.233 107.604 125.661 107.18 124.94 106.544C123.298 104.999 120.985 103.636 119.318 103.212C117.279 102.697 114.717 102.818 106.931 103.787C100.365 104.605 96.5343 105.423 93.5246 106.665C92.3307 107.149 93.9723 106.18 97.38 104.363L100.987 102.424L107.205 102.243C113.249 102.061 114.642 101.849 116.781 100.789C117.975 100.213 119.368 100.425 120.96 101.395ZM74.1481 106.725C73.7253 108.27 72.5811 110.208 71.3623 111.45C70.3425 112.48 68.5516 113.54 68.1288 113.358C67.9298 113.267 67.4074 113.449 66.9597 113.782C66.5369 114.116 66.0643 114.388 65.9648 114.388C65.4424 114.388 66.9846 112.45 68.477 111.147C69.3973 110.36 70.641 109.239 71.2628 108.664C71.8598 108.058 72.4816 107.573 72.606 107.573C72.7304 107.573 73.1781 106.937 73.6009 106.18C74.4964 104.545 74.6954 104.757 74.1481 106.725ZM105.688 106.816C107.877 107.149 110.563 107.422 111.657 107.452L113.672 107.482L112.304 107.937C110.986 108.361 105.961 108.331 99.743 107.876L97.7531 107.755L99.2455 108.058C100.066 108.24 103.325 108.421 106.484 108.421C112.702 108.482 112.876 108.603 108.076 109.724C105.514 110.33 103.25 110.178 98.8724 109.118C97.1561 108.694 94.9175 108.331 93.8977 108.331C92.6043 108.331 92.1566 108.24 92.4053 108.028C92.6043 107.876 93.052 107.725 93.4251 107.725C93.7733 107.725 94.1713 107.573 94.3206 107.392C94.6937 106.937 97.9521 106.271 99.9917 106.241C100.962 106.241 103.524 106.483 105.688 106.816ZM87.555 110.754L85.5651 110.935L87.555 110.966C88.6494 110.996 90.49 110.905 91.6591 110.784C94.5942 110.511 96.584 110.814 99.743 112.117L102.479 113.237L108.697 113.51C112.13 113.631 115.413 113.904 116.035 114.085C116.657 114.267 117.602 114.54 118.149 114.661C118.697 114.812 118.945 114.933 118.697 114.964C112.727 115.448 110.314 115.781 107.255 116.539C101.211 117.992 100.017 117.811 92.0322 114.297C89.5448 113.207 86.8336 112.147 85.9631 111.935C84.8686 111.662 84.5453 111.48 84.8686 111.329C85.2915 111.117 85.2666 111.087 84.8189 111.056C83.5503 110.905 85.7143 110.511 87.555 110.542L89.5448 110.572L87.555 110.754ZM82.7046 111.995C83.3265 112.147 84.0727 112.359 84.396 112.419C85.9879 112.722 89.0722 116.448 90.2413 119.446C90.8134 120.961 91.0373 122.051 91.087 123.475L91.1865 125.443L89.0971 120.506C87.8783 117.599 86.6595 115.145 86.1869 114.6L85.3412 113.631L86.1372 114.782C86.9331 115.903 89.0474 120.688 88.8733 120.93C88.7986 120.991 88.3509 120.355 87.8286 119.537C85.4905 115.812 82.2818 113.025 79.5954 112.389C78.6751 112.177 78.6502 112.147 79.2223 111.935C80.1178 111.632 81.4112 111.632 82.7046 111.995ZM77.3817 114.237C78.0533 114.479 79.1726 115.236 79.8442 115.903C82.0579 118.053 83.5503 119.204 84.3712 119.416C84.8189 119.537 85.3163 119.81 85.4656 120.022C85.7143 120.385 85.4407 120.446 83.7991 120.446C81.4858 120.446 80.3914 119.901 76.2375 116.69C72.5562 113.843 72.5314 113.782 74.5212 113.782C75.4167 113.782 76.7101 113.994 77.3817 114.237Z" fill="black"/>
<path d="M142.152 55.9322C141.854 56.4168 141.68 56.8409 141.754 56.8409C141.804 56.8409 142.103 56.4168 142.401 55.9322C142.7 55.4173 142.874 55.0236 142.799 55.0236C142.749 55.0236 142.451 55.4173 142.152 55.9322Z" fill="black"/>
<path d="M140.66 58.6582C140.511 58.9914 140.461 59.2639 140.511 59.2639C140.585 59.2639 140.759 58.9914 140.909 58.6582C141.058 58.325 141.108 58.0524 141.058 58.0524C140.983 58.0524 140.809 58.325 140.66 58.6582Z" fill="black"/>
<path d="M121.806 79.1026C121.383 80.2233 121.458 80.4656 121.905 79.4661C122.129 78.9815 122.254 78.5271 122.179 78.4666C122.129 78.406 121.955 78.6786 121.806 79.1026Z" fill="black"/>
<path d="M121.159 80.9199C120.935 81.7073 120.985 81.8891 121.283 81.2833C121.433 80.9804 121.507 80.6473 121.433 80.5867C121.383 80.4958 121.259 80.6473 121.159 80.9199Z" fill="black"/>
<path d="M120.662 82.7674C120.562 83.1915 120.537 83.6155 120.587 83.7064C120.662 83.7669 120.786 83.464 120.861 83.0097C120.96 82.5857 120.985 82.1617 120.935 82.0708C120.861 82.0102 120.736 82.3131 120.662 82.7674Z" fill="black"/>
<path d="M135.138 77.9516C135.312 78.0425 135.536 78.0122 135.611 77.9213C135.71 77.8305 135.561 77.7396 135.287 77.7699C135.014 77.7699 134.939 77.8607 135.138 77.9516Z" fill="black"/>
<path d="M132.079 78.9814C131.407 79.3146 130.735 79.7386 130.586 79.8901C130.462 80.0415 131.009 79.8598 131.83 79.4357C132.651 79.042 133.496 78.6483 133.695 78.5574C134.019 78.4059 134.019 78.4059 133.695 78.3757C133.496 78.3757 132.775 78.6483 132.079 78.9814Z" fill="black"/>
<path d="M136.63 78.5574C136.805 78.6483 137.028 78.618 137.103 78.5271C137.203 78.4363 137.053 78.3454 136.78 78.3757C136.506 78.3757 136.431 78.4665 136.63 78.5574Z" fill="black"/>
<path d="M135.262 78.9512C134.417 79.3752 134.566 79.5872 135.437 79.2237C135.859 79.042 136.183 78.83 136.183 78.7694C136.183 78.5877 135.884 78.6483 135.262 78.9512Z" fill="black"/>
<path d="M128.173 81.9193C127.178 82.8886 125.736 84.3424 124.99 85.1299C124.243 85.9174 122.9 87.038 122.005 87.6135C121.109 88.189 120.662 88.5827 121.01 88.4616C122.104 88.1284 123.547 86.9169 126.233 84.191C127.676 82.7371 129.193 81.2227 129.591 80.8593C130.014 80.4958 130.263 80.1626 130.163 80.1626C130.064 80.1626 129.168 80.9501 128.173 81.9193Z" fill="black"/>
<path d="M110.339 84.8876C110.339 85.2208 110.414 85.3116 110.488 85.0693C110.563 84.8573 110.538 84.5847 110.463 84.4938C110.389 84.3727 110.314 84.5544 110.339 84.8876Z" fill="black"/>
<path d="M100.166 90.1577C100.166 90.5817 100.216 90.7332 100.29 90.5212C100.34 90.3394 100.34 89.976 100.29 89.764C100.216 89.5822 100.166 89.7337 100.166 90.1577Z" fill="black"/>
<path d="M100.191 93.9437C100.191 94.61 100.24 94.8523 100.29 94.4586C100.34 94.0951 100.34 93.5499 100.29 93.2471C100.216 92.9745 100.166 93.2773 100.191 93.9437Z" fill="black"/>
<path d="M100.265 97.0331C100.166 98.0023 99.8425 99.5167 99.4943 100.365C99.1709 101.243 98.947 101.97 99.0217 101.97C99.345 101.97 100.365 98.6081 100.514 97.0331C100.614 96.0942 100.614 95.3067 100.564 95.3067C100.489 95.3067 100.365 96.0942 100.265 97.0331Z" fill="black"/>
<path d="M90.4402 94.2769C91.659 95.8518 92.2809 97.0937 92.8032 99.0927C92.9773 99.759 93.1266 100.092 93.1266 99.8196C93.2012 98.2143 91.5098 94.7312 90.092 93.4894C89.4702 92.9442 89.5448 93.1259 90.4402 94.2769Z" fill="black"/>
<path d="M93.2262 101.819C93.2262 102.636 93.2759 102.97 93.3257 102.485C93.3754 102.031 93.3754 101.364 93.3257 100.971C93.2759 100.607 93.2262 100.971 93.2262 101.819Z" fill="black"/>
<path d="M92.9277 103.969C92.9277 104.302 93.0024 104.393 93.077 104.151C93.1516 103.939 93.1267 103.666 93.0521 103.575C92.9775 103.454 92.9029 103.636 92.9277 103.969Z" fill="black"/>
<path d="M129.168 91.8841C129.318 91.9447 129.616 91.9447 129.79 91.8841C129.939 91.7933 129.815 91.7327 129.467 91.7327C129.119 91.7327 128.994 91.7933 129.168 91.8841Z" fill="black"/>
<path d="M128.174 92.187C128.348 92.2779 128.571 92.2476 128.646 92.1567C128.746 92.0659 128.596 91.975 128.323 92.0053C128.049 92.0053 127.975 92.0962 128.174 92.187Z" fill="black"/>
<path d="M126.432 92.7928C126.606 92.8836 126.83 92.8533 126.905 92.7625C127.004 92.6716 126.855 92.5807 126.581 92.611C126.308 92.611 126.233 92.7019 126.432 92.7928Z" fill="black"/>
<path d="M125.487 94.0951C125.039 94.4586 125.437 94.4586 126.109 94.0951C126.432 93.9134 126.482 93.8226 126.233 93.8226C126.034 93.8226 125.686 93.9437 125.487 94.0951Z" fill="black"/>
<path d="M121.88 94.6706C121.333 95.0038 121.01 95.2461 121.134 95.2461C121.482 95.2764 123.448 94.1557 123.124 94.1254C123 94.1254 122.428 94.3677 121.88 94.6706Z" fill="black"/>
<path d="M123.622 94.9735C123.074 95.3067 122.751 95.549 122.875 95.549C123.224 95.5792 125.189 94.4586 124.865 94.4283C124.741 94.4283 124.169 94.6706 123.622 94.9735Z" fill="black"/>
<path d="M120.015 95.6095C119.816 95.761 119.766 95.9124 119.891 95.9124C120.04 95.9124 120.313 95.761 120.512 95.6095C120.711 95.4581 120.786 95.3067 120.637 95.3067C120.512 95.3067 120.214 95.4581 120.015 95.6095Z" fill="black"/>
<path d="M121.507 96.0639C121.159 96.3062 121.01 96.4879 121.134 96.4879C121.284 96.4879 121.657 96.3062 122.005 96.0639C122.353 95.8216 122.527 95.6398 122.378 95.6398C122.254 95.6398 121.856 95.8216 121.507 96.0639Z" fill="black"/>
<path d="M116.732 97.0331C116.906 97.124 117.129 97.0937 117.204 97.0028C117.304 96.9119 117.154 96.8211 116.881 96.8514C116.607 96.8514 116.533 96.9422 116.732 97.0331Z" fill="black"/>
<path d="M119.219 97.0331C119.368 97.0936 119.667 97.0936 119.841 97.0331C119.99 96.9422 119.866 96.8816 119.517 96.8816C119.169 96.8816 119.045 96.9422 119.219 97.0331Z" fill="black"/>
<path d="M115.04 97.4269C114.692 97.548 113.971 97.6692 113.448 97.6994C112.901 97.7297 112.528 97.8206 112.603 97.9115C112.677 98.0023 113.747 97.972 114.941 97.8509C116.383 97.6994 116.98 97.548 116.657 97.3966C116.06 97.124 115.836 97.124 115.04 97.4269Z" fill="black"/>
<path d="M117.851 97.336C118.075 97.3966 118.423 97.3966 118.597 97.336C118.746 97.2451 118.572 97.1846 118.149 97.1846C117.751 97.1846 117.602 97.2451 117.851 97.336Z" fill="black"/>
<path d="M117.03 98.7898C116.135 99.1835 115.538 99.5167 115.687 99.5167C116.01 99.547 119.02 98.3355 119.02 98.1538C119.02 97.9417 118.721 98.0326 117.03 98.7898Z" fill="black"/>
<path d="M114.742 99.759C114.916 99.8499 115.14 99.8196 115.214 99.7288C115.314 99.6379 115.165 99.547 114.891 99.5773C114.617 99.5773 114.543 99.6682 114.742 99.759Z" fill="black"/>
<path d="M113.498 100.062C113.647 100.122 113.946 100.122 114.12 100.062C114.269 99.971 114.145 99.9104 113.797 99.9104C113.448 99.9104 113.324 99.971 113.498 100.062Z" fill="black"/>
<path d="M112.13 100.365C112.354 100.425 112.702 100.425 112.876 100.365C113.025 100.274 112.851 100.213 112.429 100.213C112.031 100.213 111.881 100.274 112.13 100.365Z" fill="black"/>
<path d="M109.643 100.668C110.016 100.728 110.563 100.728 110.886 100.668C111.185 100.607 110.886 100.547 110.19 100.547C109.518 100.547 109.245 100.607 109.643 100.668Z" fill="black"/>
<path d="M106.658 100.971C107.031 101.031 107.628 101.031 108.026 100.971C108.399 100.91 108.076 100.849 107.329 100.849C106.583 100.849 106.26 100.91 106.658 100.971Z" fill="black"/>
<path d="M104.121 94.5798C104.121 94.9129 104.195 95.0038 104.27 94.7615C104.345 94.5495 104.32 94.2769 104.245 94.186C104.171 94.0649 104.096 94.2466 104.121 94.5798Z" fill="black"/>
<path d="M104.195 96.0942C104.096 96.5788 103.797 97.4571 103.524 98.0326C103.126 98.8504 103.101 99.0018 103.399 98.6989C103.872 98.2446 104.743 95.7004 104.519 95.4278C104.444 95.3067 104.295 95.6398 104.195 96.0942Z" fill="black"/>
<path d="M71.5116 109.118C71.039 109.875 70.0689 111.026 69.3476 111.723C68.6263 112.419 68.1039 113.056 68.1537 113.116C68.3278 113.328 70.3923 111.117 71.4867 109.542C72.0837 108.694 72.5314 107.937 72.4817 107.876C72.4319 107.846 71.9842 108.391 71.5116 109.118Z" fill="black"/>
<path d="M91.1118 111.268C91.2859 111.359 91.5098 111.329 91.5844 111.238C91.6839 111.147 91.5347 111.056 91.2611 111.087C90.9874 111.087 90.9128 111.178 91.1118 111.268Z" fill="black"/>
<path d="M92.3555 111.571C92.5296 111.662 92.7535 111.632 92.8281 111.541C92.9276 111.45 92.7784 111.359 92.5048 111.39C92.2312 111.39 92.1565 111.48 92.3555 111.571Z" fill="black"/>
<path d="M94.2707 112.268C94.9423 112.631 95.3403 112.631 94.8926 112.268C94.6936 112.117 94.3454 111.995 94.1464 111.995C93.8976 111.995 93.9474 112.086 94.2707 112.268Z" fill="black"/>
<path d="M95.6388 112.874C95.8378 113.025 96.1362 113.177 96.2606 113.177C96.4098 113.177 96.3352 113.025 96.1362 112.874C95.9372 112.722 95.6636 112.571 95.5144 112.571C95.39 112.571 95.4398 112.722 95.6388 112.874Z" fill="black"/>
<path d="M97.1313 113.631C97.4795 113.873 97.8775 114.055 98.0018 114.055C98.1511 114.055 97.977 113.873 97.6287 113.631C97.2805 113.389 96.9074 113.207 96.7582 113.207C96.6338 113.207 96.783 113.389 97.1313 113.631Z" fill="black"/>
<path d="M111.881 114.6C112.802 114.661 114.294 114.661 115.239 114.6C116.16 114.54 115.389 114.509 113.548 114.509C111.707 114.509 110.936 114.54 111.881 114.6Z" fill="black"/>
<path d="M104.792 115.509C104.966 115.6 105.19 115.569 105.265 115.479C105.364 115.388 105.215 115.297 104.942 115.327C104.668 115.327 104.593 115.418 104.792 115.509Z" fill="black"/>
<path d="M84.4457 112.692C84.4457 112.753 84.6447 112.995 84.8934 113.207C85.2665 113.601 85.2914 113.57 84.968 113.086C84.6447 112.601 84.4457 112.45 84.4457 112.692Z" fill="black"/>
<path d="M77.8294 116.841C79.9934 118.174 81.8092 119.204 81.8589 119.174C81.9584 119.022 74.4466 114.388 74.1233 114.388C73.9989 114.388 75.6405 115.478 77.8294 116.841Z" fill="black"/>
<path d="M38.1312 57.9312C38.0069 58.0523 37.9323 58.8095 37.9323 59.6273V61.0811H39.0764C39.6983 61.0811 40.4196 60.9297 40.6932 60.7783C41.2404 60.4148 41.3399 58.9004 40.8176 58.3855C40.4196 57.9615 38.38 57.598 38.1312 57.9312ZM40.3699 58.6278C40.5688 58.749 40.6683 59.2033 40.6186 59.597C40.544 60.2331 40.4196 60.3239 39.4247 60.3239C38.2805 60.3239 37.9323 59.8696 38.2805 58.7793C38.4297 58.3249 39.8226 58.2038 40.3699 58.6278Z" fill="black"/>
<path d="M48.23 58.1735C48.1554 58.4158 48.1305 59.1124 48.1802 59.7485L48.2549 60.9297L49.5732 61.0206C50.4686 61.0812 50.8666 61.0206 50.7422 60.8086C50.6676 60.6268 50.1452 60.4754 49.598 60.4754C48.3544 60.4754 48.3792 59.8091 49.6478 59.5365L50.4935 59.3547L49.6975 59.2942C49.1503 59.2639 48.8767 59.1124 48.8767 58.8096C48.8767 58.4764 49.1503 58.3552 49.8965 58.3552C50.4935 58.3552 50.8417 58.2341 50.7422 58.0524C50.4935 57.5677 48.3792 57.6889 48.23 58.1735Z" fill="black"/>
<path d="M66.2135 57.9615C65.9399 58.2644 66.0145 61.0811 66.2882 61.0811C66.4374 61.0811 66.5369 60.8086 66.5369 60.4754C66.5369 59.9908 66.711 59.8696 67.2831 59.8696C67.7059 59.8696 68.0293 59.7182 68.0293 59.5667C68.0293 59.385 67.7059 59.2639 67.2831 59.2639C66.7856 59.2639 66.5369 59.1124 66.5369 58.8095C66.5369 58.4764 66.8105 58.3552 67.5567 58.3552C68.1537 58.3552 68.5019 58.2341 68.4024 58.0523C68.2283 57.7192 66.4623 57.6283 66.2135 57.9615Z" fill="black"/>
<path d="M75.9142 57.9615C75.8147 58.0523 75.7401 58.8095 75.7401 59.6273V61.0811H77.0086C77.7797 61.0811 78.2025 60.96 78.103 60.7783C78.0284 60.5965 77.5061 60.4754 76.9589 60.4754C75.7152 60.4754 75.7401 59.809 77.0086 59.5365L77.8543 59.3547L76.9837 59.2336C75.7649 59.0518 75.8893 58.537 77.1827 58.4158C77.7548 58.3552 78.1777 58.2038 78.103 58.0221C77.9289 57.7192 76.1629 57.6586 75.9142 57.9615Z" fill="black"/>
<path d="M108.548 58.5673C108.424 59.0216 108.324 59.7182 108.374 60.1422C108.449 60.8691 108.548 60.9297 109.767 61.0206C110.662 61.0812 111.06 61.0206 110.936 60.8086C110.861 60.6268 110.339 60.4754 109.792 60.4754C108.548 60.4754 108.573 59.8091 109.842 59.5365L110.687 59.3547L109.891 59.2942C109.344 59.2639 109.071 59.1124 109.071 58.8096C109.071 58.4764 109.344 58.3552 110.09 58.3552C110.687 58.3552 111.036 58.2341 110.936 58.0524C110.861 57.8706 110.339 57.7495 109.792 57.7495C108.946 57.7495 108.772 57.8706 108.548 58.5673Z" fill="black"/>
<path d="M85.7143 59.173C85.5153 59.809 85.3163 60.5057 85.2666 60.6874C85.192 60.8994 85.2417 61.0811 85.391 61.0811C85.5402 61.0811 85.7889 60.5965 85.9382 59.9908L86.2366 58.9004L86.8834 60.0211C87.5052 61.0509 87.5549 61.1114 87.8534 60.5662C88.8484 58.749 88.8235 58.749 89.1468 59.9605C89.321 60.5662 89.5697 61.0811 89.6941 61.0811C89.9925 61.0811 89.9925 61.0509 89.3956 59.3547C88.8981 57.9918 88.8484 57.9312 88.525 58.5067C87.5052 60.3542 87.5798 60.3239 86.9082 59.1427C86.5849 58.537 86.2615 58.0523 86.1869 58.0523C86.0874 58.0523 85.8884 58.5672 85.7143 59.173Z" fill="black"/>
<path d="M97.4048 58.749C97.2556 59.2033 97.0069 59.9302 96.8825 60.3542C96.6835 60.9297 96.7084 61.1115 96.9322 61.0206C97.0815 60.96 97.3551 60.4451 97.5043 59.8696L97.7779 58.8398L98.4246 59.9908L99.0714 61.1115L99.6186 60.2028C99.9171 59.6879 100.24 59.2639 100.315 59.2639C100.415 59.2639 100.638 59.6879 100.812 60.2331C100.962 60.748 101.161 61.1115 101.26 60.9903C101.335 60.8994 101.21 60.1725 100.962 59.385L100.514 57.9615L99.6932 59.1427C99.2455 59.7788 98.8724 60.1725 98.8724 60.0211C98.8724 59.8394 98.5739 59.3245 98.2505 58.8096L97.6536 57.9312L97.4048 58.749Z" fill="black"/>
<path d="M55.916 66.1393C66.4374 66.1999 83.5504 66.1999 93.9724 66.1393C104.394 66.109 95.8131 66.0787 74.8696 66.0787C53.9509 66.0787 45.4193 66.109 55.916 66.1393Z" fill="black"/>
<path d="M82.0579 71.0157C81.2371 71.1671 80.6401 72.1364 80.8143 73.0147C80.9884 73.8931 82.3067 74.5291 83.3016 74.2262C84.3214 73.9234 84.0727 73.5296 82.7793 73.4387C81.8589 73.3782 81.5605 73.2267 81.5107 72.7724C81.3615 71.9546 81.8341 71.5912 82.9534 71.6215C83.5006 71.6518 83.9483 71.5609 83.9483 71.4094C83.9483 71.1066 82.829 70.8643 82.0579 71.0157Z" fill="black"/>
<path d="M51.9112 72.5907C51.4884 73.8022 51.4635 74.1051 51.7371 74.1051C51.9361 74.1051 52.1599 73.7719 52.2594 73.3479C52.4584 72.3787 52.5828 72.4089 53.2544 73.4084L53.7767 74.2262L54.4234 73.3479L55.0453 72.4392L55.3189 73.257C55.4681 73.7416 55.692 74.1051 55.8412 74.1051C56.1397 74.1051 56.0402 73.5296 55.4681 71.894L55.1696 71.0157L54.4732 72.0152L53.7767 73.045L53.1051 72.0455L52.4336 71.046L51.9112 72.5907Z" fill="black"/>
<path d="M60.5671 72.5907C60.5671 73.7416 60.6666 74.1051 60.9402 74.1051C61.2138 74.1051 61.3133 73.7416 61.3133 72.5907C61.3133 71.4398 61.2138 71.0763 60.9402 71.0763C60.6666 71.0763 60.5671 71.4398 60.5671 72.5907Z" fill="black"/>
<path d="M66.0394 72.5906C66.0394 74.0445 66.3378 74.5896 66.6363 73.6507C66.711 73.4084 66.9348 73.1964 67.1089 73.1964C67.3079 73.1964 67.6064 73.4084 67.7805 73.6507C67.9546 73.893 68.2531 74.105 68.4521 74.105C68.7506 74.105 68.7755 74.0142 68.5516 73.681C68.3277 73.3478 68.3277 73.1055 68.5516 72.6512C69.0988 71.5911 68.676 71.0762 67.283 71.0762H66.0394V72.5906ZM68.0292 72.1666C68.0292 72.4998 67.8303 72.5906 67.3577 72.5301C66.3876 72.4089 66.313 71.682 67.2582 71.682C67.7805 71.682 68.0292 71.8334 68.0292 72.1666Z" fill="black"/>
<path d="M74.0486 72.4695C73.6258 73.2873 73.3273 73.9839 73.3771 74.0748C73.4268 74.1354 73.8248 74.0142 74.2228 73.8325C74.7451 73.5599 75.0933 73.5296 75.4416 73.7719C76.6355 74.5594 76.5609 73.8325 75.2674 71.7123L74.8446 71.0157L74.0486 72.4695ZM75.1182 72.5907C75.1928 72.7421 75.0933 72.8936 74.8695 72.8936C74.6456 72.8936 74.5461 72.7421 74.6207 72.5907C74.6954 72.4089 74.8197 72.2878 74.8695 72.2878C74.9192 72.2878 75.0436 72.4089 75.1182 72.5907Z" fill="black"/>
<path d="M88.6743 72.5907V74.1051H89.918C91.3607 74.1051 91.6094 73.5902 90.2413 73.4388C89.3459 73.3479 89.2962 73.2873 89.2215 72.197C89.0972 70.5311 88.6743 70.834 88.6743 72.5907Z" fill="black"/>
<path d="M95.6388 72.5907V74.1051H97.0068C97.753 74.1051 98.3749 73.9537 98.3749 73.8022C98.3749 73.6205 97.9272 73.4993 97.3799 73.4993C96.8327 73.4993 96.385 73.3479 96.385 73.1965C96.385 73.0147 96.7332 72.8936 97.1312 72.8936C97.5541 72.8936 97.8774 72.7421 97.8774 72.5907C97.8774 72.409 97.5541 72.2878 97.1312 72.2878C96.7332 72.2878 96.385 72.1364 96.385 71.9849C96.385 71.8032 96.8327 71.6821 97.3799 71.6821C97.9272 71.6821 98.3749 71.5306 98.3749 71.3792C98.3749 71.1975 97.753 71.0763 97.0068 71.0763H95.6388V72.5907Z" fill="black"/>
</svg>
