<svg width="54" height="47" viewBox="0 0 54 47" fill="none" xmlns="http://www.w3.org/2000/svg">
<path d="M19.2793 40.9416L20.4401 39.4691M34.4707 40.9416L35.6315 42.4141M25.524 8.71615C25.8775 9.0834 26.3652 9.2909 26.875 9.2909C27.3848 9.2909 27.8725 9.0834 28.226 8.71615C33.3708 3.37078 38.7848 2.88303 42.814 4.7248C46.9615 6.62063 50 11.1299 50 16.5071C50 22.0006 47.752 26.2348 44.5293 29.8638C41.8732 32.8546 38.6581 35.3333 35.5225 37.7507C34.7777 38.3249 34.0373 38.8957 33.31 39.4691C31.9948 40.5058 30.8218 41.4156 29.691 42.0763C28.5597 42.7376 27.649 43.0393 26.875 43.0393C26.101 43.0393 25.1903 42.7376 24.059 42.0763C22.9282 41.4156 21.7552 40.5058 20.4401 39.4691C19.713 38.8959 18.9728 38.3252 18.2281 37.7511C15.0923 35.3336 11.8769 32.8548 9.22073 29.8638C5.99805 26.2348 3.75 22.0006 3.75 16.5071C3.75 11.1299 6.78842 6.62063 10.9359 4.7248C14.9652 2.88303 20.3792 3.37078 25.524 8.71615ZM0 16.5071C0 23.1708 2.77625 28.2546 6.4168 32.3538C9.33197 35.6364 12.9 38.3838 16.0513 40.8102C16.766 41.3605 17.4592 41.8943 18.1186 42.4141C19.3991 43.4236 20.7739 44.5001 22.167 45.3141C23.5598 46.1278 25.149 46.7893 26.875 46.7893C28.601 46.7893 30.1902 46.1278 31.583 45.3141C32.9762 44.5001 34.3507 43.4236 35.6315 42.4141C36.2911 41.8941 36.9846 41.3601 37.6996 40.8095C40.8507 38.3832 44.4184 35.6361 47.3333 32.3538C50.9738 28.2546 53.75 23.1708 53.75 16.5071C53.75 9.7269 49.9133 3.84663 44.373 1.31423C39.1276 -1.08348 32.6552 -0.360077 26.875 4.8113C21.0948 -0.360077 14.6224 -1.08348 9.3769 1.31423C3.83678 3.84663 0 9.7269 0 16.5071Z" fill="black"/>
<path d="M19.2793 40.9416L20.4401 39.4691M34.4707 40.9416L35.6315 42.4141M25.524 8.71615C25.8775 9.0834 26.3652 9.2909 26.875 9.2909C27.3848 9.2909 27.8725 9.0834 28.226 8.71615C33.3708 3.37078 38.7848 2.88303 42.814 4.7248C46.9615 6.62063 50 11.1299 50 16.5071C50 22.0006 47.752 26.2348 44.5293 29.8638C41.8732 32.8546 38.6581 35.3333 35.5225 37.7507C34.7777 38.3249 34.0373 38.8957 33.31 39.4691C31.9948 40.5058 30.8218 41.4156 29.691 42.0763C28.5597 42.7376 27.649 43.0393 26.875 43.0393C26.101 43.0393 25.1903 42.7376 24.059 42.0763C22.9282 41.4156 21.7552 40.5058 20.4401 39.4691C19.713 38.8959 18.9728 38.3252 18.2281 37.7511C15.0923 35.3336 11.8769 32.8548 9.22073 29.8638C5.99805 26.2348 3.75 22.0006 3.75 16.5071C3.75 11.1299 6.78842 6.62063 10.9359 4.7248C14.9652 2.88303 20.3792 3.37078 25.524 8.71615ZM0 16.5071C0 23.1708 2.77625 28.2546 6.4168 32.3538C9.33197 35.6364 12.9 38.3838 16.0513 40.8102C16.766 41.3605 17.4592 41.8943 18.1186 42.4141C19.3991 43.4236 20.7739 44.5001 22.167 45.3141C23.5598 46.1278 25.149 46.7893 26.875 46.7893C28.601 46.7893 30.1902 46.1278 31.583 45.3141C32.9762 44.5001 34.3507 43.4236 35.6315 42.4141C36.2911 41.8941 36.9846 41.3601 37.6996 40.8095C40.8507 38.3832 44.4184 35.6361 47.3333 32.3538C50.9738 28.2546 53.75 23.1708 53.75 16.5071C53.75 9.7269 49.9133 3.84663 44.373 1.31423C39.1276 -1.08348 32.6552 -0.360077 26.875 4.8113C21.0948 -0.360077 14.6224 -1.08348 9.3769 1.31423C3.83678 3.84663 0 9.7269 0 16.5071Z" stroke="black"/>
</svg>
