<svg width="22" height="25" viewBox="0 0 22 25" fill="none" xmlns="http://www.w3.org/2000/svg">
<path d="M21.875 5.9375V18.4375C21.873 20.0116 21.2468 21.5207 20.1338 22.6338C19.0207 23.7468 17.5116 24.373 15.9375 24.375H10.9375C10.6889 24.375 10.4504 24.2762 10.2746 24.1004C10.0988 23.9246 10 23.6861 10 23.4375C10 23.1889 10.0988 22.9504 10.2746 22.7746C10.4504 22.5988 10.6889 22.5 10.9375 22.5H15.9375C17.0145 22.4987 18.0471 22.0702 18.8087 21.3087C19.5702 20.5471 19.9987 19.5145 20 18.4375V5.9375C19.9987 4.86046 19.5702 3.82792 18.8087 3.06634C18.0471 2.30476 17.0145 1.87632 15.9375 1.875H10.9375C10.6889 1.875 10.4504 1.77623 10.2746 1.60041C10.0988 1.4246 10 1.18614 10 0.9375C10 0.68886 10.0988 0.450403 10.2746 0.274587C10.4504 0.0987719 10.6889 0 10.9375 0H15.9375C17.5116 0.0019846 19.0207 0.628178 20.1338 1.74125C21.2468 2.85431 21.873 4.36339 21.875 5.9375ZM14.1 11.525L9.1 6.525C8.92311 6.35431 8.68625 6.25992 8.44044 6.26217C8.19463 6.26443 7.95953 6.36313 7.7858 6.53704C7.61206 6.71094 7.51357 6.94612 7.51155 7.19193C7.50953 7.43775 7.60414 7.67452 7.775 7.85125L11.1737 11.25H0.9375C0.68886 11.25 0.450403 11.3488 0.274587 11.5246C0.0987719 11.7004 0 11.9389 0 12.1875C0 12.4361 0.0987719 12.6746 0.274587 12.8504C0.450403 13.0262 0.68886 13.125 0.9375 13.125H11.1737L7.775 16.525C7.60414 16.7017 7.50953 16.9385 7.51155 17.1843C7.51357 17.4301 7.61206 17.6653 7.7858 17.8392C7.95953 18.0131 8.19463 18.1118 8.44044 18.1141C8.68625 18.1163 8.92311 18.0219 9.1 17.8512L14.1 12.8512C14.1871 12.7642 14.2562 12.6608 14.3034 12.547C14.3505 12.4332 14.3748 12.3113 14.3748 12.1881C14.3748 12.065 14.3505 11.943 14.3034 11.8292C14.2562 11.7154 14.1871 11.6121 14.1 11.525Z" fill="black"/>
</svg>
