<svg width="30" height="30" viewBox="0 0 30 30" fill="none" xmlns="http://www.w3.org/2000/svg">
<path d="M15 28.125C22.2487 28.125 28.125 22.2487 28.125 15C28.125 7.75126 22.2487 1.875 15 1.875C7.75126 1.875 1.875 7.75126 1.875 15C1.875 22.2487 7.75126 28.125 15 28.125Z" fill="url(#paint0_linear_158_14)"/>
<path d="M19.8878 19.014L20.4709 15.3095H16.8236V12.9066C16.8236 11.8928 17.3322 10.9042 18.9658 10.9042H20.625V7.7503C20.625 7.7503 19.1198 7.5 17.6815 7.5C14.6764 7.5 12.7141 9.27463 12.7141 12.486V15.3095H9.375V19.014H12.7141V27.9698C13.3844 28.0725 14.0702 28.125 14.7688 28.125C15.4674 28.125 16.1533 28.0725 16.8236 27.9698V19.014H19.8878Z" fill="white"/>
<defs>
<linearGradient id="paint0_linear_158_14" x1="15" y1="1.875" x2="15" y2="28.0472" gradientUnits="userSpaceOnUse">
<stop stop-color="#18ACFE"/>
<stop offset="1" stop-color="#0163E0"/>
</linearGradient>
</defs>
</svg>
