<svg width="30" height="30" viewBox="0 0 30 30" fill="none" xmlns="http://www.w3.org/2000/svg">
<path fill-rule="evenodd" clip-rule="evenodd" d="M15 29.0625C22.2488 29.0625 28.125 23.1863 28.125 15.9375C28.125 8.68876 22.2488 2.8125 15 2.8125C7.75126 2.8125 1.875 8.68876 1.875 15.9375C1.875 18.2915 2.49469 20.5007 3.57982 22.4109L1.875 29.0625L8.73268 27.4723C10.5951 28.4863 12.7302 29.0625 15 29.0625ZM15 27.0433C21.1336 27.0433 26.1058 22.0711 26.1058 15.9375C26.1058 9.804 21.1336 4.83173 15 4.83173C8.86645 4.83173 3.89423 9.804 3.89423 15.9375C3.89423 18.3057 4.63547 20.5008 5.8986 22.3033L4.90385 26.0336L8.69993 25.0846C10.4901 26.3199 12.6606 27.0433 15 27.0433Z" fill="#BFC8D0"/>
<path d="M26.25 15C26.25 21.2132 21.2132 26.25 15 26.25C12.6302 26.25 10.4315 25.5173 8.61812 24.266L4.77273 25.2273L5.7804 21.4485C4.50086 19.6225 3.75 17.399 3.75 15C3.75 8.78679 8.78679 3.75 15 3.75C21.2132 3.75 26.25 8.78679 26.25 15Z" fill="url(#paint0_linear_158_9)"/>
<path fill-rule="evenodd" clip-rule="evenodd" d="M15 28.125C22.2488 28.125 28.125 22.2488 28.125 15C28.125 7.75126 22.2488 1.875 15 1.875C7.75126 1.875 1.875 7.75126 1.875 15C1.875 17.354 2.49469 19.5632 3.57982 21.4734L1.875 28.125L8.73268 26.5348C10.5951 27.5488 12.7302 28.125 15 28.125ZM15 26.1058C21.1336 26.1058 26.1058 21.1336 26.1058 15C26.1058 8.86645 21.1336 3.89423 15 3.89423C8.86645 3.89423 3.89423 8.86645 3.89423 15C3.89423 17.3682 4.63547 19.5633 5.8986 21.3658L4.90385 25.0961L8.69993 24.1471C10.4901 25.3824 12.6606 26.1058 15 26.1058Z" fill="white"/>
<path d="M11.7188 8.90618C11.4067 8.27938 10.928 8.33487 10.4444 8.33487C9.58013 8.33487 8.23242 9.37014 8.23242 11.2969C8.23242 12.8759 8.92823 14.6044 11.2729 17.1901C13.5356 19.6856 16.5088 20.9764 18.9771 20.9324C21.4453 20.8886 21.9532 18.7645 21.9532 18.0472C21.9532 17.7293 21.7558 17.5707 21.62 17.5275C20.7788 17.1238 19.2275 16.3717 18.8745 16.2304C18.5215 16.0891 18.3372 16.2803 18.2227 16.3842C17.9026 16.6892 17.2681 17.5883 17.0508 17.7905C16.8336 17.9927 16.5097 17.8903 16.3748 17.8139C15.8788 17.6149 14.534 17.0167 13.462 15.9775C12.1362 14.6923 12.0584 14.2501 11.8087 13.8566C11.6089 13.5417 11.7555 13.3485 11.8286 13.2641C12.1143 12.9345 12.5087 12.4257 12.6856 12.1728C12.8624 11.9199 12.7221 11.536 12.6378 11.2969C12.2754 10.2685 11.9684 9.40756 11.7188 8.90618Z" fill="white"/>
<defs>
<linearGradient id="paint0_linear_158_9" x1="24.8437" y1="6.5625" x2="3.75" y2="26.25" gradientUnits="userSpaceOnUse">
<stop stop-color="#5BD066"/>
<stop offset="1" stop-color="#27B43E"/>
</linearGradient>
</defs>
</svg>
